<mxfile host="app.diagrams.net" modified="2024-06-28T09:25:33.358Z" agent="Mozilla/5.0 (Windows NT 10.0; Win64; x64; rv:127.0) Gecko/20100101 Firefox/127.0" etag="kwuomELbautRzD9nwqoX" version="24.6.4" type="device">
  <diagram name="Page-1" id="c4acf3e9-155e-7222-9cf6-157b1a14988f">
    <mxGraphModel dx="3086" dy="1228" grid="1" gridSize="10" guides="1" tooltips="1" connect="1" arrows="1" fold="1" page="0" pageScale="1" pageWidth="690" pageHeight="980" background="none" math="0" shadow="0">
      <root>
        <mxCell id="0" />
        <mxCell id="1" parent="0" />
        <mxCell id="WkvtlJ_VR4e_vaY0fBgr-5" value="Model" style="swimlane;whiteSpace=wrap;html=1;fillColor=#ffe6cc;strokeColor=#d79b00;fillStyle=auto;noLabel=0;glass=0;" vertex="1" parent="1">
          <mxGeometry x="-1140" y="-220" width="1730" height="1970" as="geometry" />
        </mxCell>
        <mxCell id="VBHyWKRIFcI3ucVcQrfy-1" value="&lt;p style=&quot;margin:0px;margin-top:4px;text-align:center;&quot;&gt;&lt;font style=&quot;font-size: 12px;&quot;&gt;&amp;lt;&amp;lt;singleton&amp;gt;&amp;gt;&lt;/font&gt;&lt;/p&gt;&lt;p style=&quot;margin:0px;margin-top:4px;text-align:center;&quot;&gt;&lt;b&gt;Game&lt;/b&gt;&lt;/p&gt;&lt;hr size=&quot;1&quot;&gt;&lt;p style=&quot;margin:0px;margin-left:4px;&quot;&gt;- players: list&amp;lt;Player&amp;gt; [2..4]&lt;/p&gt;&lt;p style=&quot;margin:0px;margin-left:4px;&quot;&gt;- resourceDeck: list&amp;lt;ResourceCard&amp;gt;&amp;nbsp;&lt;/p&gt;&lt;p style=&quot;margin:0px;margin-left:4px;&quot;&gt;- goldDeck: list&amp;lt;GoldCard&amp;gt;&lt;/p&gt;&lt;p style=&quot;margin:0px;margin-left:4px;&quot;&gt;- achievementDeck: list&amp;lt;AchievementCard&amp;gt;&lt;/p&gt;&lt;p style=&quot;margin:0px;margin-left:4px;&quot;&gt;- starterDeck: list&amp;lt;StarterCard&amp;gt;&lt;br&gt;&lt;/p&gt;&lt;p style=&quot;margin:0px;margin-left:4px;&quot;&gt;- commonResource: list&amp;lt;ResourceCard&amp;gt;&amp;nbsp;&lt;/p&gt;&lt;p style=&quot;margin:0px;margin-left:4px;&quot;&gt;- commonGold: list&amp;lt;GoldCard&amp;gt;&lt;/p&gt;&lt;p style=&quot;margin:0px;margin-left:4px;&quot;&gt;- commonAchievement: list&amp;lt;AchievementCard&amp;gt;&lt;/p&gt;&lt;p style=&quot;margin:0px;margin-left:4px;&quot;&gt;- playersNumber: int&lt;/p&gt;&lt;hr size=&quot;1&quot;&gt;&lt;p style=&quot;margin:0px;margin-left:4px;&quot;&gt;+ createStarterDeck()&lt;/p&gt;&lt;p style=&quot;margin:0px;margin-left:4px;&quot;&gt;+ createResourceDeck()&lt;/p&gt;&lt;p style=&quot;margin:0px;margin-left:4px;&quot;&gt;+ createAchievementDeck()&lt;/p&gt;&lt;p style=&quot;margin:0px;margin-left:4px;&quot;&gt;+ createGoldDeck()&lt;/p&gt;&lt;p style=&quot;margin:0px;margin-left:4px;&quot;&gt;+ createHands()&lt;/p&gt;&lt;p style=&quot;margin:0px;margin-left:4px;&quot;&gt;+ start()&lt;/p&gt;&lt;p style=&quot;margin:0px;margin-left:4px;&quot;&gt;+ nextPlayer()&lt;/p&gt;&lt;p style=&quot;margin:0px;margin-left:4px;&quot;&gt;+ assignColors()&lt;br&gt;&lt;/p&gt;&lt;div&gt;&amp;nbsp;+ draw(String, int): Card&lt;br&gt;&lt;/div&gt;&lt;div&gt;&amp;nbsp;+ calculateEndPoints()&lt;br&gt;&lt;/div&gt;" style="verticalAlign=top;align=left;overflow=fill;html=1;whiteSpace=wrap;" parent="WkvtlJ_VR4e_vaY0fBgr-5" vertex="1">
          <mxGeometry x="742.5" y="130" width="260" height="380" as="geometry" />
        </mxCell>
        <mxCell id="VBHyWKRIFcI3ucVcQrfy-3" value="&lt;p style=&quot;margin:0px;margin-top:4px;text-align:center;&quot;&gt;&lt;b&gt;Player&lt;/b&gt;&lt;/p&gt;&lt;hr size=&quot;1&quot;&gt;&lt;p style=&quot;margin:0px;margin-left:4px;&quot;&gt;- name: String&lt;/p&gt;&lt;p style=&quot;margin:0px;margin-left:4px;&quot;&gt;- winner: boolean&lt;/p&gt;&lt;p style=&quot;margin:0px;margin-left:4px;&quot;&gt;- points: int&lt;/p&gt;&lt;p style=&quot;margin:0px;margin-left:4px;&quot;&gt;- hand: list&amp;lt;Card&amp;gt;&lt;/p&gt;&lt;p style=&quot;margin:0px;margin-left:4px;&quot;&gt;- area: Playground&lt;/p&gt;&lt;p style=&quot;margin:0px;margin-left:4px;&quot;&gt;- color: Color&lt;/p&gt;&lt;p style=&quot;margin:0px;margin-left:4px;&quot;&gt;- secretAchievement: AchievementCard&lt;br&gt;&lt;/p&gt;&lt;hr size=&quot;1&quot;&gt;&lt;p style=&quot;margin:0px;margin-left:4px;&quot;&gt;+ addCard(Card):&lt;/p&gt;&lt;p style=&quot;margin:0px;margin-left:4px;&quot;&gt;+ place(Card, int, int): boolean&lt;br&gt;&lt;/p&gt;&lt;p style=&quot;margin:0px;margin-left:4px;&quot;&gt;&amp;nbsp;- placeable(Card, int, int): boolean&lt;/p&gt;&lt;p style=&quot;margin:0px;margin-left:4px;&quot;&gt;+ addPoints(int):&lt;/p&gt;" style="verticalAlign=top;align=left;overflow=fill;html=1;whiteSpace=wrap;" parent="WkvtlJ_VR4e_vaY0fBgr-5" vertex="1">
          <mxGeometry x="752.5" y="590" width="240" height="215" as="geometry" />
        </mxCell>
        <mxCell id="VBHyWKRIFcI3ucVcQrfy-13" value="&lt;p style=&quot;margin:0px;margin-top:4px;text-align:center;&quot;&gt;&lt;b&gt;Playground&lt;/b&gt;&lt;/p&gt;&lt;hr size=&quot;1&quot;&gt;&lt;p style=&quot;margin:0px;margin-left:4px;&quot;&gt;- table: Space[81][81]&lt;/p&gt;&lt;div&gt;&amp;nbsp;- resources: map&amp;lt;Resource, int&amp;gt; &lt;br&gt;&lt;/div&gt;&lt;div&gt;&amp;nbsp;- items: map&amp;lt;Item, int&amp;gt; &lt;/div&gt;&lt;p style=&quot;margin:0px;margin-left:4px;&quot;&gt;- northBound: int&lt;/p&gt;&lt;p style=&quot;margin:0px;margin-left:4px;&quot;&gt;- eastBound: int&lt;br&gt;- westBound: int&lt;/p&gt;&lt;p style=&quot;margin:0px;margin-left:4px;&quot;&gt;- southBound: int&lt;br&gt;&lt;/p&gt;&lt;hr size=&quot;1&quot;&gt;&lt;p style=&quot;margin:0px;margin-left:4px;&quot;&gt;+ countResources(Resource): int&lt;/p&gt;&lt;p style=&quot;margin:0px;margin-left:4px;&quot;&gt;+ countItems(Item): int&lt;/p&gt;&lt;p style=&quot;margin:0px;margin-left:4px;&quot;&gt;+ setSpace(Card, int, int)&lt;br&gt;&lt;/p&gt;&lt;p style=&quot;margin:0px;margin-left:4px;&quot;&gt;+ getSpace(int, int): Space&lt;br&gt;&lt;/p&gt;" style="verticalAlign=top;align=left;overflow=fill;html=1;whiteSpace=wrap;" parent="WkvtlJ_VR4e_vaY0fBgr-5" vertex="1">
          <mxGeometry x="437.5" y="530" width="230" height="220" as="geometry" />
        </mxCell>
        <mxCell id="VBHyWKRIFcI3ucVcQrfy-16" value="&lt;p style=&quot;margin:0px;margin-top:4px;text-align:center;&quot;&gt;&amp;lt;&amp;lt;abstract&amp;gt;&amp;gt;&lt;/p&gt;&lt;p style=&quot;margin:0px;margin-top:4px;text-align:center;&quot;&gt;&lt;b&gt;Card&lt;/b&gt;&lt;/p&gt;&lt;hr size=&quot;1&quot;&gt;&lt;p style=&quot;margin:0px;margin-left:4px;&quot;&gt;- front: boolean&lt;/p&gt;&lt;p style=&quot;margin:0px;margin-left:4px;&quot;&gt;- points: int&lt;/p&gt;&lt;p style=&quot;margin:0px;margin-left:4px;&quot;&gt;- resource: Resource&lt;/p&gt;&lt;p style=&quot;margin:0px;margin-left:4px;&quot;&gt;- frontCorners: Corner[4]&lt;/p&gt;&lt;p style=&quot;margin:0px;margin-left:4px;&quot;&gt;- backCorners: Corner[4]&lt;/p&gt;&lt;hr size=&quot;1&quot;&gt;&lt;p style=&quot;margin:0px;margin-left:4px;&quot;&gt;+ setFront(boolean)&lt;/p&gt;&lt;p style=&quot;margin:0px;margin-left:4px;&quot;&gt;+ isFront(): boolean&lt;/p&gt;&lt;p style=&quot;margin:0px;margin-left:4px;&quot;&gt;+ getPoints(): int&lt;/p&gt;&lt;p style=&quot;margin:0px;margin-left:4px;&quot;&gt;+ getResource(): Resource&lt;br&gt;&lt;/p&gt;&lt;p style=&quot;margin:0px;margin-left:4px;&quot;&gt;+ getFrontCorners(): Corner[4]&lt;/p&gt;&lt;p style=&quot;margin:0px;margin-left:4px;&quot;&gt;+ getBackCorners(): Corner[4]&lt;br&gt;&lt;/p&gt;" style="verticalAlign=top;align=left;overflow=fill;html=1;whiteSpace=wrap;" parent="WkvtlJ_VR4e_vaY0fBgr-5" vertex="1">
          <mxGeometry x="662.5" y="980" width="190" height="230" as="geometry" />
        </mxCell>
        <mxCell id="VBHyWKRIFcI3ucVcQrfy-17" value="&lt;p style=&quot;margin:0px;margin-top:4px;text-align:center;&quot;&gt;&amp;lt;&amp;lt;enumeration&amp;gt;&amp;gt;&lt;/p&gt;&lt;p style=&quot;margin:0px;margin-top:4px;text-align:center;&quot;&gt;&lt;b&gt;Resource&lt;/b&gt;&lt;/p&gt;&lt;hr size=&quot;1&quot;&gt;&lt;p style=&quot;margin:0px;margin-left:4px;&quot;&gt;WOLF&lt;/p&gt;&lt;p style=&quot;margin:0px;margin-left:4px;&quot;&gt;BUTTERFLY&lt;/p&gt;&lt;p style=&quot;margin:0px;margin-left:4px;&quot;&gt;LEAF&lt;/p&gt;&lt;p style=&quot;margin:0px;margin-left:4px;&quot;&gt;MUSHROOM&lt;/p&gt;" style="verticalAlign=top;align=left;overflow=fill;html=1;whiteSpace=wrap;" parent="WkvtlJ_VR4e_vaY0fBgr-5" vertex="1">
          <mxGeometry x="132.5" y="905" width="160" height="110" as="geometry" />
        </mxCell>
        <mxCell id="VBHyWKRIFcI3ucVcQrfy-19" value="&lt;p style=&quot;margin:0px;margin-top:4px;text-align:center;&quot;&gt;&lt;b&gt;ResourceCard&lt;/b&gt;&lt;/p&gt;&lt;hr size=&quot;1&quot;&gt;&lt;p style=&quot;margin:0px;margin-left:4px;&quot;&gt;&lt;br&gt;&lt;/p&gt;&lt;hr size=&quot;1&quot;&gt;&lt;p style=&quot;margin:0px;margin-left:4px;&quot;&gt;&lt;br&gt;&lt;/p&gt;" style="verticalAlign=top;align=left;overflow=fill;html=1;whiteSpace=wrap;" parent="WkvtlJ_VR4e_vaY0fBgr-5" vertex="1">
          <mxGeometry x="582.5" y="1430" width="160" height="90" as="geometry" />
        </mxCell>
        <mxCell id="VBHyWKRIFcI3ucVcQrfy-21" value="&lt;p style=&quot;margin:0px;margin-top:4px;text-align:center;&quot;&gt;&lt;b&gt;GoldCard&lt;/b&gt;&lt;/p&gt;&lt;hr size=&quot;1&quot;&gt;&lt;p style=&quot;margin:0px;margin-left:4px;&quot;&gt;- reqResources: map&amp;lt;Resource, int&amp;gt; &lt;br&gt;&lt;/p&gt;&lt;p style=&quot;margin:0px;margin-left:4px;&quot;&gt;- reqItem: Item&lt;/p&gt;&lt;p style=&quot;margin:0px;margin-left:4px;&quot;&gt;- reqPoints: ReqPoint&lt;/p&gt;&lt;hr size=&quot;1&quot;&gt;&lt;p style=&quot;margin:0px;margin-left:4px;&quot;&gt;+ countResource(Resource): int&lt;/p&gt;&lt;p style=&quot;margin:0px;margin-left:4px;&quot;&gt;+ getPointsType(): ReqPoint&lt;br&gt;&lt;/p&gt;&lt;p style=&quot;margin:0px;margin-left:4px;&quot;&gt;+ getItem(): Item&lt;br&gt;&lt;/p&gt;" style="verticalAlign=top;align=left;overflow=fill;html=1;whiteSpace=wrap;" parent="WkvtlJ_VR4e_vaY0fBgr-5" vertex="1">
          <mxGeometry x="782.5" y="1430" width="220" height="140" as="geometry" />
        </mxCell>
        <mxCell id="VBHyWKRIFcI3ucVcQrfy-22" value="&lt;p style=&quot;margin: 4px 0px 0px; text-align: center;&quot;&gt;&lt;font style=&quot;font-size: 12px;&quot;&gt;&amp;lt;&amp;lt;enumeration&amp;gt;&amp;gt;&lt;/font&gt;&lt;/p&gt;&lt;p style=&quot;margin: 4px 0px 0px; text-align: center;&quot;&gt;&lt;b&gt;ReqPoint&lt;/b&gt;&lt;/p&gt;&lt;hr&gt;&lt;p style=&quot;margin:0px;margin-left:8px;&quot;&gt;CORNER&lt;/p&gt;&lt;p style=&quot;margin:0px;margin-left:8px;&quot;&gt;ITEM&lt;/p&gt;&lt;p style=&quot;margin:0px;margin-left:8px;&quot;&gt;SIMPLE&lt;br&gt;&lt;/p&gt;" style="verticalAlign=top;align=left;overflow=fill;html=1;whiteSpace=wrap;" parent="WkvtlJ_VR4e_vaY0fBgr-5" vertex="1">
          <mxGeometry x="812.5" y="1610" width="160" height="100" as="geometry" />
        </mxCell>
        <mxCell id="VBHyWKRIFcI3ucVcQrfy-25" value="&lt;p style=&quot;margin:0px;margin-top:4px;text-align:center;&quot;&gt;&lt;b&gt;StarterCard&lt;/b&gt;&lt;/p&gt;&lt;hr size=&quot;1&quot;&gt;&lt;p style=&quot;margin:0px;margin-left:4px;&quot;&gt;- secondResource: Resource&lt;/p&gt;&lt;p style=&quot;margin:0px;margin-left:4px;&quot;&gt;- thirdResource: Resource&lt;/p&gt;&lt;hr size=&quot;1&quot;&gt;&lt;p style=&quot;margin:0px;margin-left:4px;&quot;&gt;+ getSecond(): Resource&lt;/p&gt;&lt;p style=&quot;margin:0px;margin-left:4px;&quot;&gt;+ getThird(): Resource&lt;/p&gt;" style="verticalAlign=top;align=left;overflow=fill;html=1;whiteSpace=wrap;" parent="WkvtlJ_VR4e_vaY0fBgr-5" vertex="1">
          <mxGeometry x="382.5" y="1430" width="170" height="110" as="geometry" />
        </mxCell>
        <mxCell id="VBHyWKRIFcI3ucVcQrfy-26" value="&lt;p style=&quot;margin:0px;margin-top:4px;text-align:center;&quot;&gt;&lt;b&gt;AchievementCard&lt;/b&gt;&lt;/p&gt;&lt;hr size=&quot;1&quot;&gt;&lt;p style=&quot;margin:0px;margin-left:4px;&quot;&gt;- strategy: Strategy&lt;/p&gt;&lt;p style=&quot;margin:0px;margin-left:4px;&quot;&gt;- player: Player&lt;/p&gt;&lt;p style=&quot;margin:0px;margin-left:4px;&quot;&gt;- item: Item&lt;br&gt;&lt;/p&gt;&lt;hr size=&quot;1&quot;&gt;&lt;p style=&quot;margin:0px;margin-left:4px;&quot;&gt;+ setPlayer()&lt;/p&gt;&lt;p style=&quot;margin:0px;margin-left:4px;&quot;&gt;+ getPoints(): int&lt;br&gt;&lt;/p&gt;" style="verticalAlign=top;align=left;overflow=fill;html=1;whiteSpace=wrap;" parent="WkvtlJ_VR4e_vaY0fBgr-5" vertex="1">
          <mxGeometry x="1042.5" y="1430" width="230" height="120" as="geometry" />
        </mxCell>
        <mxCell id="9KjA4H4EcXaX_7E6Pq11-5" value="" style="endArrow=classic;html=1;rounded=0;entryX=0.5;entryY=0;entryDx=0;entryDy=0;exitX=0.5;exitY=1;exitDx=0;exitDy=0;" parent="WkvtlJ_VR4e_vaY0fBgr-5" source="VBHyWKRIFcI3ucVcQrfy-21" target="VBHyWKRIFcI3ucVcQrfy-22" edge="1">
          <mxGeometry width="50" height="50" relative="1" as="geometry">
            <mxPoint x="962.5" y="1740" as="sourcePoint" />
            <mxPoint x="1012.5" y="1690" as="targetPoint" />
          </mxGeometry>
        </mxCell>
        <mxCell id="9KjA4H4EcXaX_7E6Pq11-6" value="" style="endArrow=classic;html=1;rounded=0;entryX=0.5;entryY=0;entryDx=0;entryDy=0;exitX=0.5;exitY=1;exitDx=0;exitDy=0;" parent="WkvtlJ_VR4e_vaY0fBgr-5" source="VBHyWKRIFcI3ucVcQrfy-26" target="RELG8puHT6EC9pHxOSf7-12" edge="1">
          <mxGeometry width="50" height="50" relative="1" as="geometry">
            <mxPoint x="1002.5" y="1580" as="sourcePoint" />
            <mxPoint x="1157.5" y="1575" as="targetPoint" />
          </mxGeometry>
        </mxCell>
        <mxCell id="9KjA4H4EcXaX_7E6Pq11-11" value="Extends" style="endArrow=block;endSize=16;endFill=0;html=1;rounded=0;entryX=0.5;entryY=1;entryDx=0;entryDy=0;" parent="WkvtlJ_VR4e_vaY0fBgr-5" target="VBHyWKRIFcI3ucVcQrfy-16" edge="1">
          <mxGeometry width="160" relative="1" as="geometry">
            <mxPoint x="757.5" y="1370" as="sourcePoint" />
            <mxPoint x="802.5" y="1320" as="targetPoint" />
            <Array as="points" />
          </mxGeometry>
        </mxCell>
        <mxCell id="9KjA4H4EcXaX_7E6Pq11-15" value="" style="endArrow=classic;html=1;rounded=0;entryX=0.5;entryY=0;entryDx=0;entryDy=0;exitX=0.5;exitY=1;exitDx=0;exitDy=0;" parent="WkvtlJ_VR4e_vaY0fBgr-5" source="VBHyWKRIFcI3ucVcQrfy-1" target="VBHyWKRIFcI3ucVcQrfy-3" edge="1">
          <mxGeometry width="50" height="50" relative="1" as="geometry">
            <mxPoint x="792.5" y="490" as="sourcePoint" />
            <mxPoint x="972.5" y="520" as="targetPoint" />
          </mxGeometry>
        </mxCell>
        <mxCell id="9KjA4H4EcXaX_7E6Pq11-17" value="" style="endArrow=classic;html=1;rounded=0;entryX=0;entryY=0.25;entryDx=0;entryDy=0;exitX=1;exitY=0.25;exitDx=0;exitDy=0;" parent="WkvtlJ_VR4e_vaY0fBgr-5" source="VBHyWKRIFcI3ucVcQrfy-3" edge="1">
          <mxGeometry width="50" height="50" relative="1" as="geometry">
            <mxPoint x="742.5" y="530" as="sourcePoint" />
            <mxPoint x="1072.5" y="612.4999999999999" as="targetPoint" />
            <Array as="points">
              <mxPoint x="1022.5" y="644" />
              <mxPoint x="1022.5" y="612" />
            </Array>
          </mxGeometry>
        </mxCell>
        <mxCell id="9KjA4H4EcXaX_7E6Pq11-19" value="" style="endArrow=classic;html=1;rounded=0;exitX=0.5;exitY=1;exitDx=0;exitDy=0;entryX=0.75;entryY=0;entryDx=0;entryDy=0;" parent="WkvtlJ_VR4e_vaY0fBgr-5" source="VBHyWKRIFcI3ucVcQrfy-3" target="VBHyWKRIFcI3ucVcQrfy-16" edge="1">
          <mxGeometry width="50" height="50" relative="1" as="geometry">
            <mxPoint x="742.5" y="820" as="sourcePoint" />
            <mxPoint x="792.5" y="770" as="targetPoint" />
            <Array as="points">
              <mxPoint x="872.5" y="950" />
              <mxPoint x="805.5" y="950" />
            </Array>
          </mxGeometry>
        </mxCell>
        <mxCell id="9KjA4H4EcXaX_7E6Pq11-20" value="" style="endArrow=classic;html=1;rounded=0;exitX=1;exitY=0.5;exitDx=0;exitDy=0;entryX=1;entryY=0.5;entryDx=0;entryDy=0;" parent="WkvtlJ_VR4e_vaY0fBgr-5" source="VBHyWKRIFcI3ucVcQrfy-1" target="VBHyWKRIFcI3ucVcQrfy-16" edge="1">
          <mxGeometry width="50" height="50" relative="1" as="geometry">
            <mxPoint x="742.5" y="680" as="sourcePoint" />
            <mxPoint x="1332.5" y="1290" as="targetPoint" />
            <Array as="points">
              <mxPoint x="1332.5" y="320" />
              <mxPoint x="1332.5" y="1095" />
            </Array>
          </mxGeometry>
        </mxCell>
        <mxCell id="9KjA4H4EcXaX_7E6Pq11-41" value="&lt;p style=&quot;margin:0px;margin-top:4px;text-align:center;&quot;&gt;&lt;b&gt;Corner&lt;/b&gt;&lt;/p&gt;&lt;hr size=&quot;1&quot;&gt;&lt;p style=&quot;margin:0px;margin-left:4px;&quot;&gt;- type: CornerType&lt;br&gt;&lt;/p&gt;&lt;p style=&quot;margin:0px;margin-left:4px;&quot;&gt;- resource: Resource&lt;/p&gt;&lt;p style=&quot;margin:0px;margin-left:4px;&quot;&gt;- item: Item&lt;/p&gt;&lt;p style=&quot;margin:0px;margin-left:4px;&quot;&gt;- visible: boolean&lt;br&gt;&lt;/p&gt;&lt;hr size=&quot;1&quot;&gt;&lt;p style=&quot;margin:0px;margin-left:4px;&quot;&gt;+ cover()&lt;/p&gt;&lt;p style=&quot;margin:0px;margin-left:4px;&quot;&gt;+ isVisible(): boolean&lt;/p&gt;&lt;p style=&quot;margin:0px;margin-left:4px;&quot;&gt;+ getType(): CornerType&lt;/p&gt;&lt;p style=&quot;margin:0px;margin-left:4px;&quot;&gt;+ getResource(): Resource&lt;/p&gt;&lt;p style=&quot;margin:0px;margin-left:4px;&quot;&gt;+ getItem(): Item&lt;br&gt;&lt;/p&gt;" style="verticalAlign=top;align=left;overflow=fill;html=1;whiteSpace=wrap;" parent="WkvtlJ_VR4e_vaY0fBgr-5" vertex="1">
          <mxGeometry x="132.5" y="1070" width="160" height="190" as="geometry" />
        </mxCell>
        <mxCell id="9KjA4H4EcXaX_7E6Pq11-42" value="&lt;p style=&quot;margin:0px;margin-top:4px;text-align:center;&quot;&gt;&amp;lt;&amp;lt;enumeration&amp;gt;&amp;gt;&lt;/p&gt;&lt;p style=&quot;margin:0px;margin-top:4px;text-align:center;&quot;&gt;&lt;b&gt;Item&lt;/b&gt;&lt;/p&gt;&lt;hr size=&quot;1&quot;&gt;&lt;p style=&quot;margin:0px;margin-left:4px;&quot;&gt;JAR&lt;/p&gt;&lt;p style=&quot;margin:0px;margin-left:4px;&quot;&gt;SCROLL&lt;/p&gt;&lt;p style=&quot;margin:0px;margin-left:4px;&quot;&gt;PLUME&lt;/p&gt;" style="verticalAlign=top;align=left;overflow=fill;html=1;whiteSpace=wrap;" parent="WkvtlJ_VR4e_vaY0fBgr-5" vertex="1">
          <mxGeometry x="132.5" y="1570" width="160" height="100" as="geometry" />
        </mxCell>
        <mxCell id="9KjA4H4EcXaX_7E6Pq11-44" value="" style="endArrow=classic;html=1;rounded=0;entryX=0.5;entryY=1;entryDx=0;entryDy=0;exitX=0.5;exitY=0;exitDx=0;exitDy=0;" parent="WkvtlJ_VR4e_vaY0fBgr-5" source="9KjA4H4EcXaX_7E6Pq11-41" target="VBHyWKRIFcI3ucVcQrfy-17" edge="1">
          <mxGeometry width="50" height="50" relative="1" as="geometry">
            <mxPoint x="512.5" y="1230" as="sourcePoint" />
            <mxPoint x="562.5" y="1180" as="targetPoint" />
          </mxGeometry>
        </mxCell>
        <mxCell id="9KjA4H4EcXaX_7E6Pq11-45" value="" style="endArrow=classic;html=1;rounded=0;exitX=0;exitY=0.25;exitDx=0;exitDy=0;entryX=1;entryY=0.25;entryDx=0;entryDy=0;" parent="WkvtlJ_VR4e_vaY0fBgr-5" source="VBHyWKRIFcI3ucVcQrfy-16" target="VBHyWKRIFcI3ucVcQrfy-17" edge="1">
          <mxGeometry width="50" height="50" relative="1" as="geometry">
            <mxPoint x="592.5" y="1230" as="sourcePoint" />
            <mxPoint x="642.5" y="1180" as="targetPoint" />
            <Array as="points">
              <mxPoint x="442.5" y="1038" />
              <mxPoint x="442.5" y="933" />
            </Array>
          </mxGeometry>
        </mxCell>
        <mxCell id="9KjA4H4EcXaX_7E6Pq11-46" value="" style="endArrow=classic;html=1;rounded=0;exitX=0.5;exitY=1;exitDx=0;exitDy=0;entryX=0.5;entryY=0;entryDx=0;entryDy=0;" parent="WkvtlJ_VR4e_vaY0fBgr-5" source="9KjA4H4EcXaX_7E6Pq11-41" target="9KjA4H4EcXaX_7E6Pq11-42" edge="1">
          <mxGeometry width="50" height="50" relative="1" as="geometry">
            <mxPoint x="512.5" y="1230" as="sourcePoint" />
            <mxPoint x="562.5" y="1180" as="targetPoint" />
          </mxGeometry>
        </mxCell>
        <mxCell id="9KjA4H4EcXaX_7E6Pq11-50" value="" style="endArrow=classic;html=1;rounded=0;entryX=1;entryY=0.25;entryDx=0;entryDy=0;exitX=0.25;exitY=1;exitDx=0;exitDy=0;" parent="WkvtlJ_VR4e_vaY0fBgr-5" source="VBHyWKRIFcI3ucVcQrfy-21" target="9KjA4H4EcXaX_7E6Pq11-42" edge="1">
          <mxGeometry width="50" height="50" relative="1" as="geometry">
            <mxPoint x="552.5" y="1470" as="sourcePoint" />
            <mxPoint x="602.5" y="1420" as="targetPoint" />
            <Array as="points">
              <mxPoint x="837.5" y="1595" />
            </Array>
          </mxGeometry>
        </mxCell>
        <mxCell id="9KjA4H4EcXaX_7E6Pq11-51" value="&lt;p style=&quot;margin:0px;margin-top:4px;text-align:center;&quot;&gt;&amp;lt;&amp;lt;enumeration&amp;gt;&amp;gt;&lt;/p&gt;&lt;p style=&quot;margin:0px;margin-top:4px;text-align:center;&quot;&gt;&lt;b&gt;CornerType&lt;/b&gt;&lt;br&gt;&lt;/p&gt;&lt;hr size=&quot;1&quot;&gt;&lt;p style=&quot;margin:0px;margin-left:4px;&quot;&gt;RESOURCE&lt;br&gt;&lt;/p&gt;&lt;p style=&quot;margin:0px;margin-left:4px;&quot;&gt;ITEM&lt;/p&gt;&lt;p style=&quot;margin:0px;margin-left:4px;&quot;&gt;FREE&lt;/p&gt;&lt;p style=&quot;margin:0px;margin-left:4px;&quot;&gt;DEAD&lt;/p&gt;" style="verticalAlign=top;align=left;overflow=fill;html=1;whiteSpace=wrap;" parent="WkvtlJ_VR4e_vaY0fBgr-5" vertex="1">
          <mxGeometry x="372.5" y="1070" width="160" height="110" as="geometry" />
        </mxCell>
        <mxCell id="9KjA4H4EcXaX_7E6Pq11-52" value="" style="endArrow=classic;html=1;rounded=0;exitX=1;exitY=0.25;exitDx=0;exitDy=0;entryX=0;entryY=0.25;entryDx=0;entryDy=0;" parent="WkvtlJ_VR4e_vaY0fBgr-5" source="9KjA4H4EcXaX_7E6Pq11-41" target="9KjA4H4EcXaX_7E6Pq11-51" edge="1">
          <mxGeometry width="50" height="50" relative="1" as="geometry">
            <mxPoint x="552.5" y="1250" as="sourcePoint" />
            <mxPoint x="602.5" y="1200" as="targetPoint" />
            <Array as="points">
              <mxPoint x="332.5" y="1118" />
              <mxPoint x="332.5" y="1098" />
            </Array>
          </mxGeometry>
        </mxCell>
        <mxCell id="7Q8JWQBwUeFJPMpjAtA_-2" value="" style="endArrow=none;html=1;rounded=0;exitX=0.5;exitY=0;exitDx=0;exitDy=0;" parent="WkvtlJ_VR4e_vaY0fBgr-5" source="VBHyWKRIFcI3ucVcQrfy-25" edge="1">
          <mxGeometry width="50" height="50" relative="1" as="geometry">
            <mxPoint x="762.5" y="1330" as="sourcePoint" />
            <mxPoint x="742.5" y="1370" as="targetPoint" />
            <Array as="points">
              <mxPoint x="467.5" y="1370" />
            </Array>
          </mxGeometry>
        </mxCell>
        <mxCell id="7Q8JWQBwUeFJPMpjAtA_-3" value="" style="endArrow=none;html=1;rounded=0;exitX=0.5;exitY=0;exitDx=0;exitDy=0;" parent="WkvtlJ_VR4e_vaY0fBgr-5" source="VBHyWKRIFcI3ucVcQrfy-19" edge="1">
          <mxGeometry width="50" height="50" relative="1" as="geometry">
            <mxPoint x="762.5" y="1330" as="sourcePoint" />
            <mxPoint x="662.5" y="1370" as="targetPoint" />
          </mxGeometry>
        </mxCell>
        <mxCell id="7Q8JWQBwUeFJPMpjAtA_-4" value="" style="endArrow=none;html=1;rounded=0;entryX=0.5;entryY=0;entryDx=0;entryDy=0;" parent="WkvtlJ_VR4e_vaY0fBgr-5" target="VBHyWKRIFcI3ucVcQrfy-21" edge="1">
          <mxGeometry width="50" height="50" relative="1" as="geometry">
            <mxPoint x="892.5" y="1370" as="sourcePoint" />
            <mxPoint x="812.5" y="1280" as="targetPoint" />
          </mxGeometry>
        </mxCell>
        <mxCell id="7Q8JWQBwUeFJPMpjAtA_-5" value="" style="endArrow=none;html=1;rounded=0;entryX=0.5;entryY=0;entryDx=0;entryDy=0;" parent="WkvtlJ_VR4e_vaY0fBgr-5" target="VBHyWKRIFcI3ucVcQrfy-26" edge="1">
          <mxGeometry width="50" height="50" relative="1" as="geometry">
            <mxPoint x="742.5" y="1370" as="sourcePoint" />
            <mxPoint x="812.5" y="1280" as="targetPoint" />
            <Array as="points">
              <mxPoint x="1157.5" y="1370" />
            </Array>
          </mxGeometry>
        </mxCell>
        <mxCell id="7Q8JWQBwUeFJPMpjAtA_-7" value="" style="endArrow=open;html=1;endSize=12;startArrow=diamondThin;startSize=14;startFill=1;edgeStyle=orthogonalEdgeStyle;align=left;verticalAlign=bottom;rounded=0;exitX=0;exitY=0.5;exitDx=0;exitDy=0;entryX=1;entryY=0.75;entryDx=0;entryDy=0;" parent="WkvtlJ_VR4e_vaY0fBgr-5" source="VBHyWKRIFcI3ucVcQrfy-16" target="9KjA4H4EcXaX_7E6Pq11-41" edge="1">
          <mxGeometry x="-0.8782" relative="1" as="geometry">
            <mxPoint x="642.5" y="1090" as="sourcePoint" />
            <mxPoint x="562.5" y="1170" as="targetPoint" />
            <Array as="points">
              <mxPoint x="572.5" y="1095" />
              <mxPoint x="572.5" y="1212" />
            </Array>
            <mxPoint as="offset" />
          </mxGeometry>
        </mxCell>
        <mxCell id="7Q8JWQBwUeFJPMpjAtA_-9" value="&lt;p style=&quot;margin:0px;margin-top:4px;text-align:center;&quot;&gt;&amp;lt;&amp;lt;enumeration&amp;gt;&amp;gt;&lt;/p&gt;&lt;p style=&quot;margin:0px;margin-top:4px;text-align:center;&quot;&gt;&lt;b&gt;Color&lt;/b&gt;&lt;br&gt;&lt;/p&gt;&lt;hr size=&quot;1&quot;&gt;&lt;p style=&quot;margin:0px;margin-left:4px;&quot;&gt;RED&lt;br&gt;&lt;/p&gt;&lt;p style=&quot;margin:0px;margin-left:4px;&quot;&gt;BLUE&lt;/p&gt;&lt;p style=&quot;margin:0px;margin-left:4px;&quot;&gt;GREEN&lt;/p&gt;&lt;p style=&quot;margin:0px;margin-left:4px;&quot;&gt;YELLOW&lt;/p&gt;&lt;p style=&quot;margin:0px;margin-left:4px;&quot;&gt;NONE&lt;br&gt;&lt;/p&gt;" style="verticalAlign=top;align=left;overflow=fill;html=1;whiteSpace=wrap;" parent="WkvtlJ_VR4e_vaY0fBgr-5" vertex="1">
          <mxGeometry x="1072.5" y="580" width="160" height="120" as="geometry" />
        </mxCell>
        <mxCell id="7Q8JWQBwUeFJPMpjAtA_-11" style="edgeStyle=orthogonalEdgeStyle;rounded=0;orthogonalLoop=1;jettySize=auto;html=1;exitX=0.5;exitY=1;exitDx=0;exitDy=0;" parent="WkvtlJ_VR4e_vaY0fBgr-5" source="VBHyWKRIFcI3ucVcQrfy-16" target="VBHyWKRIFcI3ucVcQrfy-16" edge="1">
          <mxGeometry relative="1" as="geometry" />
        </mxCell>
        <mxCell id="mR6tvdOViw74VSjQAa9q-1" value="&lt;p style=&quot;margin:0px;margin-top:4px;text-align:center;&quot;&gt;&lt;b&gt;Space&lt;/b&gt;&lt;/p&gt;&lt;hr size=&quot;1&quot;&gt;&lt;p style=&quot;margin:0px;margin-left:4px;&quot;&gt;- card: Card&lt;br&gt;&lt;/p&gt;&lt;p style=&quot;margin:0px;margin-left:4px;&quot;&gt;- free: boolean&lt;/p&gt;&lt;p style=&quot;margin:0px;margin-left:4px;&quot;&gt;- dead: boolean&lt;/p&gt;&lt;p style=&quot;margin:0px;margin-left:4px;&quot;&gt;- checked: boolean&lt;/p&gt;&lt;hr size=&quot;1&quot;&gt;&lt;p style=&quot;margin:0px;margin-left:4px;&quot;&gt;+ setCard(Card)&lt;br&gt;&lt;/p&gt;&lt;p style=&quot;margin:0px;margin-left:4px;&quot;&gt;+ getCard(): Card&lt;br&gt;&lt;/p&gt;&lt;p style=&quot;margin:0px;margin-left:4px;&quot;&gt;+ isFree(): boolean&lt;br&gt;&lt;/p&gt;&lt;p style=&quot;margin:0px;margin-left:4px;&quot;&gt;+ isDead(): boolean&lt;/p&gt;&lt;p style=&quot;margin:0px;margin-left:4px;&quot;&gt;+ check(boolean)&lt;/p&gt;&lt;p style=&quot;margin:0px;margin-left:4px;&quot;&gt;&lt;/p&gt;" style="verticalAlign=top;align=left;overflow=fill;html=1;whiteSpace=wrap;" parent="WkvtlJ_VR4e_vaY0fBgr-5" vertex="1">
          <mxGeometry x="482.5" y="810" width="140" height="180" as="geometry" />
        </mxCell>
        <mxCell id="mR6tvdOViw74VSjQAa9q-6" value="" style="endArrow=classic;html=1;rounded=0;entryX=0.25;entryY=0;entryDx=0;entryDy=0;exitX=1;exitY=0.5;exitDx=0;exitDy=0;" parent="WkvtlJ_VR4e_vaY0fBgr-5" source="mR6tvdOViw74VSjQAa9q-1" target="VBHyWKRIFcI3ucVcQrfy-16" edge="1">
          <mxGeometry width="50" height="50" relative="1" as="geometry">
            <mxPoint x="642.5" y="930" as="sourcePoint" />
            <mxPoint x="742.5" y="850" as="targetPoint" />
            <Array as="points">
              <mxPoint x="710.5" y="900" />
            </Array>
          </mxGeometry>
        </mxCell>
        <mxCell id="mR6tvdOViw74VSjQAa9q-10" value="" style="endArrow=classic;html=1;rounded=0;entryX=1.004;entryY=0.455;entryDx=0;entryDy=0;entryPerimeter=0;exitX=0;exitY=0.25;exitDx=0;exitDy=0;" parent="WkvtlJ_VR4e_vaY0fBgr-5" source="VBHyWKRIFcI3ucVcQrfy-3" target="VBHyWKRIFcI3ucVcQrfy-13" edge="1">
          <mxGeometry width="50" height="50" relative="1" as="geometry">
            <mxPoint x="822.5" y="760" as="sourcePoint" />
            <mxPoint x="872.5" y="710" as="targetPoint" />
            <Array as="points">
              <mxPoint x="712.5" y="644" />
              <mxPoint x="712.5" y="639" />
              <mxPoint x="712.5" y="630" />
            </Array>
          </mxGeometry>
        </mxCell>
        <mxCell id="mR6tvdOViw74VSjQAa9q-12" value="" style="endArrow=open;html=1;endSize=12;startArrow=diamondThin;startSize=14;startFill=1;edgeStyle=orthogonalEdgeStyle;align=left;verticalAlign=bottom;rounded=0;entryX=0.5;entryY=0;entryDx=0;entryDy=0;exitX=0.5;exitY=1;exitDx=0;exitDy=0;" parent="WkvtlJ_VR4e_vaY0fBgr-5" source="VBHyWKRIFcI3ucVcQrfy-13" target="mR6tvdOViw74VSjQAa9q-1" edge="1">
          <mxGeometry x="-0.875" y="20" relative="1" as="geometry">
            <mxPoint x="542.5" y="770" as="sourcePoint" />
            <mxPoint x="702.5" y="770" as="targetPoint" />
            <mxPoint as="offset" />
          </mxGeometry>
        </mxCell>
        <mxCell id="DF0XxkstoRHmBpMt2SlA-1" style="edgeStyle=orthogonalEdgeStyle;rounded=0;orthogonalLoop=1;jettySize=auto;html=1;exitX=0.5;exitY=1;exitDx=0;exitDy=0;" parent="WkvtlJ_VR4e_vaY0fBgr-5" source="VBHyWKRIFcI3ucVcQrfy-1" target="VBHyWKRIFcI3ucVcQrfy-1" edge="1">
          <mxGeometry relative="1" as="geometry" />
        </mxCell>
        <mxCell id="RELG8puHT6EC9pHxOSf7-1" value="&lt;p style=&quot;margin:0px;margin-top:4px;text-align:center;&quot;&gt;&amp;lt;&amp;lt;singleton&amp;gt;&amp;gt;&lt;br&gt;&lt;/p&gt;&lt;p style=&quot;margin:0px;margin-top:4px;text-align:center;&quot;&gt;&lt;b&gt;Chat&lt;/b&gt;&lt;/p&gt;&lt;hr size=&quot;1&quot;&gt;&lt;p style=&quot;margin:0px;margin-left:4px;&quot;&gt;- chat: list&amp;lt;Message&amp;gt;&lt;br&gt;&lt;/p&gt;&lt;hr size=&quot;1&quot;&gt;&lt;p style=&quot;margin:0px;margin-left:4px;&quot;&gt;+ sendMessage(Message)&lt;/p&gt;&lt;p style=&quot;margin:0px;margin-left:4px;&quot;&gt;+ getLastMessage(): Message&lt;br&gt;&lt;/p&gt;&lt;p style=&quot;margin:0px;margin-left:4px;&quot;&gt;+ getWholeChat(): list&amp;lt;Message&amp;gt;&lt;br&gt;&lt;/p&gt;" style="verticalAlign=top;align=left;overflow=fill;html=1;whiteSpace=wrap;" parent="WkvtlJ_VR4e_vaY0fBgr-5" vertex="1">
          <mxGeometry x="252.5" y="110" width="210" height="140" as="geometry" />
        </mxCell>
        <mxCell id="RELG8puHT6EC9pHxOSf7-2" value="&lt;p style=&quot;margin:0px;margin-top:4px;text-align:center;&quot;&gt;&lt;b&gt;Message&lt;/b&gt;&lt;/p&gt;&lt;hr size=&quot;1&quot;&gt;&lt;p style=&quot;margin:0px;margin-left:4px;&quot;&gt;- text: String&lt;/p&gt;&lt;p style=&quot;margin:0px;margin-left:4px;&quot;&gt;- author: String&lt;/p&gt;&lt;p style=&quot;margin:0px;margin-left:4px;&quot;&gt;- time: LocalTime&lt;br&gt;&lt;/p&gt;&lt;hr size=&quot;1&quot;&gt;&lt;p style=&quot;margin:0px;margin-left:4px;&quot;&gt;+ print()&lt;/p&gt;" style="verticalAlign=top;align=left;overflow=fill;html=1;whiteSpace=wrap;" parent="WkvtlJ_VR4e_vaY0fBgr-5" vertex="1">
          <mxGeometry x="252.5" y="320" width="210" height="110" as="geometry" />
        </mxCell>
        <mxCell id="RELG8puHT6EC9pHxOSf7-5" value="" style="endArrow=classic;html=1;rounded=0;exitX=0.5;exitY=1;exitDx=0;exitDy=0;entryX=0.5;entryY=0;entryDx=0;entryDy=0;" parent="WkvtlJ_VR4e_vaY0fBgr-5" source="RELG8puHT6EC9pHxOSf7-1" target="RELG8puHT6EC9pHxOSf7-2" edge="1">
          <mxGeometry width="50" height="50" relative="1" as="geometry">
            <mxPoint x="672.5" y="220" as="sourcePoint" />
            <mxPoint x="722.5" y="170" as="targetPoint" />
          </mxGeometry>
        </mxCell>
        <mxCell id="RELG8puHT6EC9pHxOSf7-12" value="&lt;p style=&quot;margin:0px;margin-top:4px;text-align:center;&quot;&gt;&amp;lt;&amp;lt;interface&amp;gt;&amp;gt;&lt;br&gt;&lt;/p&gt;&lt;p style=&quot;margin:0px;margin-top:4px;text-align:center;&quot;&gt;&lt;b&gt;Strategy&lt;/b&gt;&lt;/p&gt;&lt;hr size=&quot;1&quot;&gt;&lt;br&gt;&lt;hr size=&quot;1&quot;&gt;&lt;p style=&quot;margin:0px;margin-left:4px;&quot;&gt;+ execute(Resource, Player, Item): int&lt;br&gt;&lt;/p&gt;" style="verticalAlign=top;align=left;overflow=fill;html=1;whiteSpace=wrap;" parent="WkvtlJ_VR4e_vaY0fBgr-5" vertex="1">
          <mxGeometry x="1052.5" y="1610" width="210" height="100" as="geometry" />
        </mxCell>
        <mxCell id="RELG8puHT6EC9pHxOSf7-13" style="edgeStyle=orthogonalEdgeStyle;rounded=0;orthogonalLoop=1;jettySize=auto;html=1;exitX=0.5;exitY=1;exitDx=0;exitDy=0;" parent="WkvtlJ_VR4e_vaY0fBgr-5" source="RELG8puHT6EC9pHxOSf7-12" target="RELG8puHT6EC9pHxOSf7-12" edge="1">
          <mxGeometry relative="1" as="geometry" />
        </mxCell>
        <mxCell id="RELG8puHT6EC9pHxOSf7-14" value="&lt;p style=&quot;margin:0px;margin-top:4px;text-align:center;&quot;&gt;&lt;b&gt;ConcreteStrategyLshape&lt;/b&gt;&lt;/p&gt;&lt;hr size=&quot;1&quot;&gt;&lt;div&gt;&lt;br&gt;&lt;/div&gt;&lt;hr size=&quot;1&quot;&gt;&amp;nbsp;+ execute(Resource, Player, Item): int" style="verticalAlign=top;align=left;overflow=fill;html=1;whiteSpace=wrap;" parent="WkvtlJ_VR4e_vaY0fBgr-5" vertex="1">
          <mxGeometry x="1052.5" y="1780" width="210" height="80" as="geometry" />
        </mxCell>
        <mxCell id="RELG8puHT6EC9pHxOSf7-16" value="&lt;p style=&quot;margin:0px;margin-top:4px;text-align:center;&quot;&gt;&lt;b&gt;ConcreteStrategyMixed&lt;/b&gt;&lt;/p&gt;&lt;hr size=&quot;1&quot;&gt;&lt;div&gt;&lt;br&gt;&lt;/div&gt;&lt;hr size=&quot;1&quot;&gt;&amp;nbsp;+ execute(Resource, Player, Item): int" style="verticalAlign=top;align=left;overflow=fill;html=1;whiteSpace=wrap;" parent="WkvtlJ_VR4e_vaY0fBgr-5" vertex="1">
          <mxGeometry x="1272.5" y="1780" width="210" height="80" as="geometry" />
        </mxCell>
        <mxCell id="RELG8puHT6EC9pHxOSf7-17" value="&lt;p style=&quot;margin:0px;margin-top:4px;text-align:center;&quot;&gt;&lt;b&gt;ConcreteStrategyItem&lt;/b&gt;&lt;/p&gt;&lt;hr size=&quot;1&quot;&gt;&lt;div&gt;&lt;br&gt;&lt;/div&gt;&lt;hr size=&quot;1&quot;&gt;&amp;nbsp;+ execute(Resource, Player, Item): int" style="verticalAlign=top;align=left;overflow=fill;html=1;whiteSpace=wrap;" parent="WkvtlJ_VR4e_vaY0fBgr-5" vertex="1">
          <mxGeometry x="832.5" y="1780" width="210" height="80" as="geometry" />
        </mxCell>
        <mxCell id="RELG8puHT6EC9pHxOSf7-18" value="&lt;p style=&quot;margin:0px;margin-top:4px;text-align:center;&quot;&gt;&lt;b&gt;ConcreteStrategyDiagonal&lt;/b&gt;&lt;/p&gt;&lt;hr size=&quot;1&quot;&gt;&lt;div&gt;&lt;br&gt;&lt;/div&gt;&lt;hr size=&quot;1&quot;&gt;&amp;nbsp;+ execute(Resource, Player, Item): int" style="verticalAlign=top;align=left;overflow=fill;html=1;whiteSpace=wrap;" parent="WkvtlJ_VR4e_vaY0fBgr-5" vertex="1">
          <mxGeometry x="612.5" y="1780" width="210" height="80" as="geometry" />
        </mxCell>
        <mxCell id="RELG8puHT6EC9pHxOSf7-19" value="&lt;p style=&quot;margin:0px;margin-top:4px;text-align:center;&quot;&gt;&lt;b&gt;ConcreteStrategyResource&lt;/b&gt;&lt;/p&gt;&lt;hr size=&quot;1&quot;&gt;&lt;div&gt;&lt;br&gt;&lt;/div&gt;&lt;hr size=&quot;1&quot;&gt;&amp;nbsp;+ execute(Resource, Player, Item): int" style="verticalAlign=top;align=left;overflow=fill;html=1;whiteSpace=wrap;" parent="WkvtlJ_VR4e_vaY0fBgr-5" vertex="1">
          <mxGeometry x="1490" y="1780" width="210" height="80" as="geometry" />
        </mxCell>
        <mxCell id="RELG8puHT6EC9pHxOSf7-20" value="" style="endArrow=block;dashed=1;endFill=0;endSize=12;html=1;rounded=0;entryX=0.5;entryY=1;entryDx=0;entryDy=0;exitX=0.5;exitY=0;exitDx=0;exitDy=0;" parent="WkvtlJ_VR4e_vaY0fBgr-5" source="RELG8puHT6EC9pHxOSf7-14" target="RELG8puHT6EC9pHxOSf7-12" edge="1">
          <mxGeometry width="160" relative="1" as="geometry">
            <mxPoint x="1012.5" y="1760" as="sourcePoint" />
            <mxPoint x="1172.5" y="1760" as="targetPoint" />
          </mxGeometry>
        </mxCell>
        <mxCell id="RELG8puHT6EC9pHxOSf7-24" value="" style="endArrow=none;dashed=1;html=1;rounded=0;entryX=0.5;entryY=0;entryDx=0;entryDy=0;exitX=0.5;exitY=0;exitDx=0;exitDy=0;" parent="WkvtlJ_VR4e_vaY0fBgr-5" source="RELG8puHT6EC9pHxOSf7-18" edge="1">
          <mxGeometry width="50" height="50" relative="1" as="geometry">
            <mxPoint x="1052.5" y="1750" as="sourcePoint" />
            <mxPoint x="1597.5" y="1780" as="targetPoint" />
            <Array as="points">
              <mxPoint x="717.5" y="1750" />
              <mxPoint x="1597.5" y="1750" />
            </Array>
          </mxGeometry>
        </mxCell>
        <mxCell id="RELG8puHT6EC9pHxOSf7-26" value="" style="endArrow=none;dashed=1;html=1;rounded=0;exitX=0.5;exitY=0;exitDx=0;exitDy=0;" parent="WkvtlJ_VR4e_vaY0fBgr-5" source="RELG8puHT6EC9pHxOSf7-16" edge="1">
          <mxGeometry width="50" height="50" relative="1" as="geometry">
            <mxPoint x="1162.5" y="1720" as="sourcePoint" />
            <mxPoint x="1377.5" y="1750" as="targetPoint" />
          </mxGeometry>
        </mxCell>
        <mxCell id="RELG8puHT6EC9pHxOSf7-27" value="" style="endArrow=none;dashed=1;html=1;rounded=0;exitX=0.5;exitY=0;exitDx=0;exitDy=0;" parent="WkvtlJ_VR4e_vaY0fBgr-5" source="RELG8puHT6EC9pHxOSf7-17" edge="1">
          <mxGeometry width="50" height="50" relative="1" as="geometry">
            <mxPoint x="1162.5" y="1720" as="sourcePoint" />
            <mxPoint x="937.5" y="1750" as="targetPoint" />
          </mxGeometry>
        </mxCell>
        <mxCell id="WkvtlJ_VR4e_vaY0fBgr-1" value="&lt;p style=&quot;margin:0px;margin-top:4px;text-align:center;&quot;&gt;&amp;lt;&amp;lt;enumeration&amp;gt;&amp;gt;&lt;/p&gt;&lt;p style=&quot;margin:0px;margin-top:4px;text-align:center;&quot;&gt;&lt;b&gt;GameState&lt;/b&gt;&lt;br&gt;&lt;/p&gt;&lt;hr size=&quot;1&quot;&gt;&amp;nbsp;LOBBY,&lt;br&gt;&amp;nbsp;INIT, &lt;br&gt;&amp;nbsp;READY,&lt;br&gt;&amp;nbsp;SELECTACHIEVEMENT,&lt;br&gt;&amp;nbsp;GAME,&lt;br&gt;&amp;nbsp;LASTROUND,&lt;br&gt;&amp;nbsp;FINALSCORE,&lt;br&gt;&amp;nbsp;END" style="verticalAlign=top;align=left;overflow=fill;html=1;whiteSpace=wrap;" vertex="1" parent="WkvtlJ_VR4e_vaY0fBgr-5">
          <mxGeometry x="522.5" y="290" width="160" height="170" as="geometry" />
        </mxCell>
        <mxCell id="WkvtlJ_VR4e_vaY0fBgr-2" value="" style="endArrow=classic;html=1;rounded=0;entryX=1;entryY=0.5;entryDx=0;entryDy=0;exitX=0;exitY=0.75;exitDx=0;exitDy=0;" edge="1" parent="WkvtlJ_VR4e_vaY0fBgr-5" source="VBHyWKRIFcI3ucVcQrfy-1" target="WkvtlJ_VR4e_vaY0fBgr-1">
          <mxGeometry width="50" height="50" relative="1" as="geometry">
            <mxPoint x="552.5" y="630" as="sourcePoint" />
            <mxPoint x="602.5" y="580" as="targetPoint" />
            <Array as="points">
              <mxPoint x="712.5" y="415" />
              <mxPoint x="712.5" y="375" />
            </Array>
          </mxGeometry>
        </mxCell>
        <mxCell id="WkvtlJ_VR4e_vaY0fBgr-6" value="&lt;p style=&quot;margin:0px;margin-top:4px;text-align:center;&quot;&gt;&lt;b&gt;Controller&lt;/b&gt;&lt;/p&gt;&lt;hr size=&quot;1&quot;&gt;&lt;p style=&quot;margin:0px;margin-left:4px;&quot;&gt;- model: Game&lt;br&gt;&lt;/p&gt;&lt;p style=&quot;margin:0px;margin-left:4px;&quot;&gt;- playersNumber: int&lt;br&gt;&lt;/p&gt;&lt;p style=&quot;margin:0px;margin-left:4px;&quot;&gt;- players: list&amp;lt;Player&amp;gt; [2..4]&lt;/p&gt;&lt;p style=&quot;margin:0px;margin-left:4px;&quot;&gt;&lt;/p&gt;&lt;p style=&quot;margin:0px;margin-left:4px;&quot;&gt;- clients: list&amp;lt;Player&amp;gt; [2..4]&lt;/p&gt;&lt;p style=&quot;margin:0px;margin-left:4px;&quot;&gt;- chat: Chat&lt;br&gt;&lt;/p&gt;&lt;hr size=&quot;1&quot;&gt;&lt;p style=&quot;margin:0px;margin-left:4px;&quot;&gt;+ createStarterDeck()&lt;/p&gt;&lt;p style=&quot;margin:0px;margin-left:4px;&quot;&gt;+ createResourceDeck()&lt;/p&gt;&lt;p style=&quot;margin:0px;margin-left:4px;&quot;&gt;+ createAchievementDeck()&lt;/p&gt;&lt;p style=&quot;margin:0px;margin-left:4px;&quot;&gt;+ createGoldDeck()&lt;/p&gt;&lt;p style=&quot;margin:0px;margin-left:4px;&quot;&gt;+ createHands()&lt;/p&gt;&lt;p style=&quot;margin:0px;margin-left:4px;&quot;&gt;+ start()&lt;/p&gt;&lt;p style=&quot;margin:0px;margin-left:4px;&quot;&gt;+ nextPlayer()&lt;/p&gt;&lt;p style=&quot;margin:0px;margin-left:4px;&quot;&gt;+ assignColors()&lt;br&gt;&lt;/p&gt;&lt;div&gt;&amp;nbsp;+ draw(String, int): Card&lt;br&gt;&lt;/div&gt;&lt;div&gt;&amp;nbsp;+ calculateEndPoints()&lt;br&gt;&lt;/div&gt;" style="verticalAlign=top;align=left;overflow=fill;html=1;whiteSpace=wrap;" vertex="1" parent="1">
          <mxGeometry x="1330" y="-70" width="260" height="380" as="geometry" />
        </mxCell>
      </root>
    </mxGraphModel>
  </diagram>
</mxfile>
